<svg xmlns="http://www.w3.org/2000/svg" xmlns:xlink="http://www.w3.org/1999/xlink" viewBox="0 0 48 48" version="1.1">
<g id="surface1">
<path style=" fill:#BBDEFB;" d="M 18 21.5 C 18 25.089844 15.089844 28 11.5 28 C 7.910156 28 5 25.089844 5 21.5 C 5 17.910156 7.910156 15 11.5 15 C 15.089844 15 18 17.910156 18 21.5 Z "></path>
<path style=" fill:#BBDEFB;" d="M 42 21.5 C 42 25.089844 39.089844 28 35.5 28 C 31.910156 28 29 25.089844 29 21.5 C 29 17.910156 31.910156 15 35.5 15 C 39.089844 15 42 17.910156 42 21.5 Z "></path>
<path style=" fill:#BBDEFB;" d="M 11 28 L 36 28 C 36 28 36 23.023438 36 21 L 11 21 Z "></path>
<path style=" fill:#BBDEFB;" d="M 36 14 C 36 18.417969 32.417969 22 28 22 C 23.582031 22 20 18.417969 20 14 C 20 9.582031 23.582031 6 28 6 C 32.417969 6 36 9.582031 36 14 Z "></path>
<path style=" fill:#BBDEFB;" d="M 23 15 C 23 18.3125 20.3125 21 17 21 C 13.6875 21 11 18.3125 11 15 C 11 11.683594 13.6875 9 17 9 C 20.3125 9 23 11.683594 23 15 Z "></path>
<path style=" fill:#BBDEFB;" d="M 30.667969 19.652344 C 30.667969 23.195313 27.792969 26.066406 24.25 26.066406 C 20.707031 26.066406 17.832031 23.195313 17.832031 19.652344 C 17.832031 16.105469 20.707031 13.234375 24.25 13.234375 C 27.792969 13.234375 30.667969 16.105469 30.667969 19.652344 Z "></path>
<path style=" fill:#64B5F6;" d="M 24 39 C 25.1875 40.1875 26 41 27 41 C 28 41 30 40.667969 30 38.519531 C 30 36.917969 28.800781 36.175781 28.265625 36.007813 C 28.148438 35.914063 22.605469 35.277344 15 33 L 26.695313 33.011719 C 26.695313 33.011719 27.984375 32.964844 28.6875 33.050781 C 30.0625 33.230469 31.339844 34.023438 32.132813 35.164063 C 32.921875 36.3125 33.1875 37.789063 32.867188 39.136719 C 32.558594 40.488281 31.660156 41.679688 30.457031 42.355469 C 29.261719 43.042969 27.785156 43.183594 26.480469 42.761719 C 24.128906 42.035156 24 39 24 39 Z "></path>
<path style=" fill:#90CAF9;" d="M 22 13 C 21.886719 10.722656 23.578125 7.628906 26.109375 6.5625 C 26.75 6.292969 27.398438 6.136719 28.140625 6.054688 C 28.324219 6.007813 28.871094 5.996094 29.179688 6 C 29.535156 6.007813 29.898438 6.03125 30.257813 6.089844 C 31.714844 6.277344 33.089844 6.992188 34.253906 7.953125 C 36.628906 9.882813 37.828125 13.328125 37.109375 16.492188 C 36.457031 19.695313 34 24 28 24 C 14 24 5 21 5 21 L 11.171875 20.609375 L 23.539063 20 L 26.628906 19.851563 L 28.179688 19.777344 C 28.664063 19.765625 29.140625 19.675781 29.601563 19.546875 C 31.464844 19.019531 32.988281 17.449219 33.464844 15.566406 C 33.96875 13.6875 33.40625 11.566406 32.019531 10.179688 C 30.664063 8.769531 28.53125 8.167969 26.625 8.640625 C 23.34375 9.78125 22 13 22 13 Z "></path>
<path style=" fill:#90CAF9;" d="M 42.046875 16.640625 C 41.339844 15.203125 40.292969 13.972656 39.050781 13.0625 C 38.382813 12.558594 37.648438 12.171875 36.878906 11.886719 C 37.253906 13.046875 37.390625 14.292969 37.257813 15.523438 C 38.753906 16.914063 39.558594 18.996094 39.34375 21.023438 C 39.15625 23.128906 37.882813 25.09375 36.050781 26.128906 C 35.140625 26.65625 34.101563 26.945313 33.058594 27.003906 L 29.742188 27.03125 L 8 27 C 8 27 15.03125 31 32.0625 31 C 35.03125 31 36.59375 30.402344 38.035156 29.546875 C 40.9375 27.835938 42.851563 24.664063 42.992188 21.339844 C 43.0625 19.746094 42.738281 18.082031 42.046875 16.640625 Z "></path>
</g>
</svg>