<?xml version="1.0" encoding="UTF-8" standalone="no"?>
<svg
   xmlns:dc="http://purl.org/dc/elements/1.1/"
   xmlns:cc="http://creativecommons.org/ns#"
   xmlns:rdf="http://www.w3.org/1999/02/22-rdf-syntax-ns#"
   xmlns:svg="http://www.w3.org/2000/svg"
   xmlns="http://www.w3.org/2000/svg"
   xmlns:sodipodi="http://sodipodi.sourceforge.net/DTD/sodipodi-0.dtd"
   xmlns:inkscape="http://www.inkscape.org/namespaces/inkscape"
   viewBox="0 0 48 48"
   version="1.1"
   id="svg23"
   sodipodi:docname="card.svg"
   inkscape:version="0.92.2 2405546, 2018-03-11">
  <metadata
     id="metadata29">
    <rdf:RDF>
      <cc:Work
         rdf:about="">
        <dc:format>image/svg+xml</dc:format>
        <dc:type
           rdf:resource="http://purl.org/dc/dcmitype/StillImage" />
      </cc:Work>
    </rdf:RDF>
  </metadata>
  <defs
     id="defs27" />
  <sodipodi:namedview
     pagecolor="#ffffff"
     bordercolor="#666666"
     borderopacity="1"
     objecttolerance="10"
     gridtolerance="10"
     guidetolerance="10"
     inkscape:pageopacity="0"
     inkscape:pageshadow="2"
     inkscape:window-width="2560"
     inkscape:window-height="1012"
     id="namedview25"
     showgrid="false"
     inkscape:zoom="13.906433"
     inkscape:cx="26.972012"
     inkscape:cy="28.058572"
     inkscape:window-x="0"
     inkscape:window-y="32"
     inkscape:window-maximized="1"
     inkscape:current-layer="surface1" />
  <g
     id="surface1">
    <path
       style=" fill:#CFD8DC;"
       d="M 31 37 C 31 37.554688 30.554688 38 30 38 L 7 38 C 6.445313 38 6 37.554688 6 37 L 6 5 C 6 4.445313 6.445313 4 7 4 L 30 4 C 30.554688 4 31 4.445313 31 5 Z "
       id="path2" />
    <path
       style=" fill:#CFD8DC;"
       d="M 42.285156 11.363281 L 31 8.015625 L 31 37 C 31 37.554688 30.554688 38 30 38 L 12.527344 38 L 32.613281 43.957031 C 33.144531 44.117188 33.699219 43.8125 33.855469 43.285156 L 42.957031 12.605469 C 43.113281 12.074219 42.8125 11.519531 42.285156 11.363281 Z "
       id="path4" />
    <path
       style=" fill:#FF3D00;"
       d="M 38.019531 16.425781 L 36.375 15.9375 L 35.824219 16.746094 L 34.539063 16.367188 L 37.789063 12.117188 L 38.917969 12.449219 L 39.335938 17.789063 L 38.046875 17.40625 Z M 36.929688 15.128906 L 37.996094 15.445313 L 37.953125 13.625 Z "
       id="path6" />
    <path
       style=" fill:#90A4AE;"
       d="M 33 8.609375 L 31 8.015625 L 31 37 C 31 37.554688 30.554688 38 30 38 L 12.527344 38 L 19.269531 40 L 30 40 C 31.652344 40 33 38.652344 33 37 Z "
       id="path10" />
    <path
       style=" fill:#263238;"
       d="M 27.355469 10.066406 L 25.636719 10.066406 L 25.339844 11 L 24 11 L 25.902344 6 L 27.082031 6 L 29 11 L 27.65625 11 Z M 25.9375 9.136719 L 27.054688 9.136719 L 26.492188 7.402344 Z "
       id="path16" />
    <path
       style=" fill:#263238;"
       d="M 11.65625 31 L 13 31 L 11.082031 36 L 9.902344 36 L 8 31 L 9.339844 31 L 9.636719 31.933594 L 11.355469 31.933594 Z M 10.492188 34.597656 L 11.054688 32.867188 L 9.9375 32.867188 Z "
       id="path18" />
  </g>
</svg>
