<svg xmlns="http://www.w3.org/2000/svg" xmlns:xlink="http://www.w3.org/1999/xlink" viewBox="0 0 48 48" version="1.1">
<g id="surface1">
<path style=" fill:#7CB342;" d="M 4 33 L 44 33 L 44 41 L 4 41 Z "></path>
<path style=" fill:#A1887F;" d="M 20 33 C 20 33 29 13 32 13 C 35 13 44 33 44 33 Z "></path>
<path style=" fill:#795548;" d="M 4 33 C 4 33 15 7 18 7 C 21 7 32 33 32 33 Z "></path>
<path style=" fill:#7CB342;" d="M 44 33 L 4 33 C 4 33 8 31 24 31 C 40 31 44 33 44 33 Z "></path>
<path style=" fill:#9CCC65;" d="M 44 39 L 44 41 L 4 41 L 4 39 C 4 39 10 36 24 36 C 38 36 44 39 44 39 Z "></path>
</g>
</svg>